<svg xmlns="http://www.w3.org/2000/svg" viewBox="0 0 256 256">
  <path d="M152 216 L104 246 L114 196 A 88 88 0 1 1 236 108 A 88 88 0 0 1 152 216 Z" fill="#1e293b" transform="translate(10, 10)" />
  <path d="M152 216 L104 246 L114 196 A 88 88 0 1 1 236 108 A 88 88 0 0 1 152 216 Z" fill="#fbbf24" stroke="#1e293b" stroke-width="16" stroke-linejoin="round" />
  <circle cx="50" cy="50" r="16" fill="#f472b6" stroke="#1e293b" stroke-width="8" />
  <circle cx="216" cy="180" r="12" fill="#34d399" stroke="#1e293b" stroke-width="8" />
  <path d="M100 85 C 100 60, 156 60, 156 85 C 156 105, 128 115, 128 135 L 128 145 M 128 180 L 128 180.1" fill="none" stroke="#ffffff" stroke-width="40" stroke-linecap="round" stroke-linejoin="round" />
  <path d="M100 85 C 100 60, 156 60, 156 85 C 156 105, 128 115, 128 135 L 128 145 M 128 180 L 128 180.1" fill="none" stroke="#1e293b" stroke-width="16" stroke-linecap="round" stroke-linejoin="round" />
</svg>